<?xml version="1.0" encoding="UTF-8" standalone="no"?>
<!DOCTYPE svg PUBLIC "-//W3C//DTD SVG 1.1//EN"
 "http://www.w3.org/Graphics/SVG/1.1/DTD/svg11.dtd">
<!-- Generated by graphviz version 2.47.3 (20210619.1520)
 -->
<!-- Title: dependencies Pages: 1 -->
<svg width="1078pt" height="247pt"
 viewBox="0.00 0.00 1078.00 246.80" xmlns="http://www.w3.org/2000/svg" xmlns:xlink="http://www.w3.org/1999/xlink">
<g id="graph0" class="graph" transform="scale(1 1) rotate(0) translate(4 242.8)">
<title>dependencies</title>
<polygon fill="white" stroke="transparent" points="-4,4 -4,-242.8 1074,-242.8 1074,4 -4,4"/>
<text text-anchor="middle" x="535" y="-8.2" font-family="sans-serif" font-size="14.00">dependencies</text>
<g id="clust1" class="cluster">
<title>cluster_SharedComponentModule</title>
<polygon fill="none" stroke="black" stroke-dasharray="1,5" points="8,-32.8 8,-230.8 1062,-230.8 1062,-32.8 8,-32.8"/>
</g>
<g id="clust10" class="cluster">
<title>cluster_SharedComponentModule_exports</title>
<polygon fill="none" stroke="black" points="70,-170.8 70,-222.8 1000,-222.8 1000,-170.8 70,-170.8"/>
</g>
<g id="clust2" class="cluster">
<title>cluster_SharedComponentModule_declarations</title>
<polygon fill="none" stroke="black" points="146,-40.8 146,-92.8 1054,-92.8 1054,-40.8 146,-40.8"/>
</g>
<g id="clust9" class="cluster">
<title>cluster_SharedComponentModule_imports</title>
<polygon fill="none" stroke="black" points="16,-40.8 16,-92.8 138,-92.8 138,-40.8 16,-40.8"/>
</g>
<!-- FooterComponent -->
<g id="node1" class="node">
<title>FooterComponent</title>
<polygon fill="#ffffb3" stroke="black" points="1045.88,-84.8 928.12,-84.8 928.12,-48.8 1045.88,-48.8 1045.88,-84.8"/>
<text text-anchor="middle" x="987" y="-62.6" font-family="Times,serif" font-size="14.00">FooterComponent</text>
</g>
<!-- SharedComponentModule -->
<g id="node7" class="node">
<title>SharedComponentModule</title>
<polygon fill="#8dd3c7" stroke="black" points="586.75,-149.8 583.75,-153.8 562.75,-153.8 559.75,-149.8 423.25,-149.8 423.25,-113.8 586.75,-113.8 586.75,-149.8"/>
<text text-anchor="middle" x="505" y="-127.6" font-family="Times,serif" font-size="14.00">SharedComponentModule</text>
</g>
<!-- FooterComponent&#45;&gt;SharedComponentModule -->
<g id="edge1" class="edge">
<title>FooterComponent&#45;&gt;SharedComponentModule</title>
<path fill="none" stroke="black" d="M959.88,-85.07C959.88,-103.36 959.88,-128.8 959.88,-128.8 959.88,-128.8 596.85,-128.8 596.85,-128.8"/>
<polygon fill="black" stroke="black" points="596.85,-125.3 586.85,-128.8 596.85,-132.3 596.85,-125.3"/>
</g>
<!-- FormFieldsComponent -->
<g id="node2" class="node">
<title>FormFieldsComponent</title>
<polygon fill="#ffffb3" stroke="black" points="909.89,-84.8 764.11,-84.8 764.11,-48.8 909.89,-48.8 909.89,-84.8"/>
<text text-anchor="middle" x="837" y="-62.6" font-family="Times,serif" font-size="14.00">FormFieldsComponent</text>
</g>
<!-- FormFieldsComponent&#45;&gt;SharedComponentModule -->
<g id="edge2" class="edge">
<title>FormFieldsComponent&#45;&gt;SharedComponentModule</title>
<path fill="none" stroke="black" d="M808.38,-84.81C808.38,-100.85 808.38,-121.8 808.38,-121.8 808.38,-121.8 597.1,-121.8 597.1,-121.8"/>
<polygon fill="black" stroke="black" points="597.1,-118.3 587.1,-121.8 597.1,-125.3 597.1,-118.3"/>
</g>
<!-- FormRendererComponent -->
<g id="node3" class="node">
<title>FormRendererComponent</title>
<polygon fill="#ffffb3" stroke="black" points="746.47,-84.8 583.53,-84.8 583.53,-48.8 746.47,-48.8 746.47,-84.8"/>
<text text-anchor="middle" x="665" y="-62.6" font-family="Times,serif" font-size="14.00">FormRendererComponent</text>
</g>
<!-- FormRendererComponent&#45;&gt;SharedComponentModule -->
<g id="edge3" class="edge">
<title>FormRendererComponent&#45;&gt;SharedComponentModule</title>
<path fill="none" stroke="black" d="M583.35,-66.8C578,-66.8 574.69,-66.8 574.69,-66.8 574.69,-66.8 574.69,-103.69 574.69,-103.69"/>
<polygon fill="black" stroke="black" points="571.19,-103.69 574.69,-113.69 578.19,-103.69 571.19,-103.69"/>
</g>
<!-- HeaderComponent -->
<g id="node4" class="node">
<title>HeaderComponent</title>
<polygon fill="#ffffb3" stroke="black" points="565.74,-84.8 444.26,-84.8 444.26,-48.8 565.74,-48.8 565.74,-84.8"/>
<text text-anchor="middle" x="505" y="-62.6" font-family="Times,serif" font-size="14.00">HeaderComponent</text>
</g>
<!-- HeaderComponent&#45;&gt;SharedComponentModule -->
<g id="edge4" class="edge">
<title>HeaderComponent&#45;&gt;SharedComponentModule</title>
<path fill="none" stroke="black" d="M505,-84.91C505,-84.91 505,-103.79 505,-103.79"/>
<polygon fill="black" stroke="black" points="501.5,-103.79 505,-113.79 508.5,-103.79 501.5,-103.79"/>
</g>
<!-- SidebarComponent -->
<g id="node5" class="node">
<title>SidebarComponent</title>
<polygon fill="#ffffb3" stroke="black" points="426.1,-84.8 301.9,-84.8 301.9,-48.8 426.1,-48.8 426.1,-84.8"/>
<text text-anchor="middle" x="364" y="-62.6" font-family="Times,serif" font-size="14.00">SidebarComponent</text>
</g>
<!-- SidebarComponent&#45;&gt;SharedComponentModule -->
<g id="edge5" class="edge">
<title>SidebarComponent&#45;&gt;SharedComponentModule</title>
<path fill="none" stroke="black" d="M426.08,-66.8C431.56,-66.8 435.09,-66.8 435.09,-66.8 435.09,-66.8 435.09,-103.69 435.09,-103.69"/>
<polygon fill="black" stroke="black" points="431.59,-103.69 435.09,-113.69 438.59,-103.69 431.59,-103.69"/>
</g>
<!-- TextEditComponent -->
<g id="node6" class="node">
<title>TextEditComponent</title>
<polygon fill="#ffffb3" stroke="black" points="284.32,-84.8 153.68,-84.8 153.68,-48.8 284.32,-48.8 284.32,-84.8"/>
<text text-anchor="middle" x="219" y="-62.6" font-family="Times,serif" font-size="14.00">TextEditComponent</text>
</g>
<!-- TextEditComponent&#45;&gt;SharedComponentModule -->
<g id="edge6" class="edge">
<title>TextEditComponent&#45;&gt;SharedComponentModule</title>
<path fill="none" stroke="black" d="M257.18,-84.81C257.18,-100.85 257.18,-121.8 257.18,-121.8 257.18,-121.8 413.17,-121.8 413.17,-121.8"/>
<polygon fill="black" stroke="black" points="413.17,-125.3 423.17,-121.8 413.17,-118.3 413.17,-125.3"/>
</g>
<!-- FooterComponent  -->
<g id="node9" class="node">
<title>FooterComponent </title>
<polygon fill="#fb8072" stroke="black" points="991.88,-214.8 870.12,-214.8 870.12,-178.8 991.88,-178.8 991.88,-214.8"/>
<text text-anchor="middle" x="931" y="-192.6" font-family="Times,serif" font-size="14.00">FooterComponent </text>
</g>
<!-- SharedComponentModule&#45;&gt;FooterComponent  -->
<g id="edge8" class="edge">
<title>SharedComponentModule&#45;&gt;FooterComponent </title>
<path fill="none" stroke="black" stroke-dasharray="5,2" d="M587.15,-135.8C700.25,-135.8 890.13,-135.8 890.13,-135.8 890.13,-135.8 890.13,-168.5 890.13,-168.5"/>
<polygon fill="black" stroke="black" points="886.63,-168.5 890.13,-178.5 893.63,-168.5 886.63,-168.5"/>
</g>
<!-- FormFieldsComponent  -->
<g id="node10" class="node">
<title>FormFieldsComponent </title>
<polygon fill="#fb8072" stroke="black" points="852.89,-214.8 703.11,-214.8 703.11,-178.8 852.89,-178.8 852.89,-214.8"/>
<text text-anchor="middle" x="778" y="-192.6" font-family="Times,serif" font-size="14.00">FormFieldsComponent </text>
</g>
<!-- SharedComponentModule&#45;&gt;FormFieldsComponent  -->
<g id="edge9" class="edge">
<title>SharedComponentModule&#45;&gt;FormFieldsComponent </title>
<path fill="none" stroke="black" stroke-dasharray="5,2" d="M586.88,-142.8C649.4,-142.8 724.89,-142.8 724.89,-142.8 724.89,-142.8 724.89,-168.52 724.89,-168.52"/>
<polygon fill="black" stroke="black" points="721.39,-168.52 724.89,-178.52 728.39,-168.52 721.39,-168.52"/>
</g>
<!-- FormRendererComponent  -->
<g id="node11" class="node">
<title>FormRendererComponent </title>
<polygon fill="#fb8072" stroke="black" points="685.47,-214.8 518.53,-214.8 518.53,-178.8 685.47,-178.8 685.47,-214.8"/>
<text text-anchor="middle" x="602" y="-192.6" font-family="Times,serif" font-size="14.00">FormRendererComponent </text>
</g>
<!-- SharedComponentModule&#45;&gt;FormRendererComponent  -->
<g id="edge10" class="edge">
<title>SharedComponentModule&#45;&gt;FormRendererComponent </title>
<path fill="none" stroke="black" stroke-dasharray="5,2" d="M552.82,-149.91C552.82,-149.91 552.82,-168.79 552.82,-168.79"/>
<polygon fill="black" stroke="black" points="549.32,-168.79 552.82,-178.79 556.32,-168.79 549.32,-168.79"/>
</g>
<!-- HeaderComponent  -->
<g id="node12" class="node">
<title>HeaderComponent </title>
<polygon fill="#fb8072" stroke="black" points="500.74,-214.8 375.26,-214.8 375.26,-178.8 500.74,-178.8 500.74,-214.8"/>
<text text-anchor="middle" x="438" y="-192.6" font-family="Times,serif" font-size="14.00">HeaderComponent </text>
</g>
<!-- SharedComponentModule&#45;&gt;HeaderComponent  -->
<g id="edge11" class="edge">
<title>SharedComponentModule&#45;&gt;HeaderComponent </title>
<path fill="none" stroke="black" stroke-dasharray="5,2" d="M461.87,-149.91C461.87,-149.91 461.87,-168.79 461.87,-168.79"/>
<polygon fill="black" stroke="black" points="458.37,-168.79 461.87,-178.79 465.37,-168.79 458.37,-168.79"/>
</g>
<!-- SidebarComponent  -->
<g id="node13" class="node">
<title>SidebarComponent </title>
<polygon fill="#fb8072" stroke="black" points="357.6,-214.8 230.4,-214.8 230.4,-178.8 357.6,-178.8 357.6,-214.8"/>
<text text-anchor="middle" x="294" y="-192.6" font-family="Times,serif" font-size="14.00">SidebarComponent </text>
</g>
<!-- SharedComponentModule&#45;&gt;SidebarComponent  -->
<g id="edge12" class="edge">
<title>SharedComponentModule&#45;&gt;SidebarComponent </title>
<path fill="none" stroke="black" stroke-dasharray="5,2" d="M423.08,-142.8C377.5,-142.8 329.88,-142.8 329.88,-142.8 329.88,-142.8 329.88,-168.52 329.88,-168.52"/>
<polygon fill="black" stroke="black" points="326.38,-168.52 329.88,-178.52 333.38,-168.52 326.38,-168.52"/>
</g>
<!-- TextEditComponent  -->
<g id="node14" class="node">
<title>TextEditComponent </title>
<polygon fill="#fb8072" stroke="black" points="211.82,-214.8 78.18,-214.8 78.18,-178.8 211.82,-178.8 211.82,-214.8"/>
<text text-anchor="middle" x="145" y="-192.6" font-family="Times,serif" font-size="14.00">TextEditComponent </text>
</g>
<!-- SharedComponentModule&#45;&gt;TextEditComponent  -->
<g id="edge13" class="edge">
<title>SharedComponentModule&#45;&gt;TextEditComponent </title>
<path fill="none" stroke="black" stroke-dasharray="5,2" d="M422.88,-135.8C327.44,-135.8 182.88,-135.8 182.88,-135.8 182.88,-135.8 182.88,-168.5 182.88,-168.5"/>
<polygon fill="black" stroke="black" points="179.38,-168.5 182.88,-178.5 186.38,-168.5 179.38,-168.5"/>
</g>
<!-- MaterialModule -->
<g id="node8" class="node">
<title>MaterialModule</title>
<polygon fill="#8dd3c7" stroke="black" points="130.47,-84.8 127.47,-88.8 106.47,-88.8 103.47,-84.8 23.53,-84.8 23.53,-48.8 130.47,-48.8 130.47,-84.8"/>
<text text-anchor="middle" x="77" y="-62.6" font-family="Times,serif" font-size="14.00">MaterialModule</text>
</g>
<!-- MaterialModule&#45;&gt;SharedComponentModule -->
<g id="edge7" class="edge">
<title>MaterialModule&#45;&gt;SharedComponentModule</title>
<path fill="none" stroke="black" d="M104.29,-85.07C104.29,-103.36 104.29,-128.8 104.29,-128.8 104.29,-128.8 412.94,-128.8 412.94,-128.8"/>
<polygon fill="black" stroke="black" points="412.94,-132.3 422.94,-128.8 412.94,-125.3 412.94,-132.3"/>
</g>
</g>
</svg>
