<?xml version="1.0" encoding="UTF-8" standalone="no"?>
<!DOCTYPE svg PUBLIC "-//W3C//DTD SVG 1.1//EN"
 "http://www.w3.org/Graphics/SVG/1.1/DTD/svg11.dtd">
<!-- Generated by graphviz version 2.47.3 (20210619.1520)
 -->
<!-- Title: dependencies Pages: 1 -->
<svg width="455pt" height="247pt"
 viewBox="0.00 0.00 455.00 246.80" xmlns="http://www.w3.org/2000/svg" xmlns:xlink="http://www.w3.org/1999/xlink">
<g id="graph0" class="graph" transform="scale(1 1) rotate(0) translate(4 242.8)">
<title>dependencies</title>
<polygon fill="white" stroke="transparent" points="-4,4 -4,-242.8 451,-242.8 451,4 -4,4"/>
<text text-anchor="middle" x="223.5" y="-8.2" font-family="sans-serif" font-size="14.00">dependencies</text>
<g id="clust1" class="cluster">
<title>cluster_AppModule</title>
<polygon fill="none" stroke="black" stroke-dasharray="1,5" points="8,-32.8 8,-230.8 439,-230.8 439,-32.8 8,-32.8"/>
</g>
<g id="clust2" class="cluster">
<title>cluster_AppModule_declarations</title>
<polygon fill="none" stroke="black" points="309,-40.8 309,-92.8 431,-92.8 431,-40.8 309,-40.8"/>
</g>
<g id="clust5" class="cluster">
<title>cluster_AppModule_exports</title>
<polygon fill="none" stroke="black" points="87,-170.8 87,-222.8 229,-222.8 229,-170.8 87,-170.8"/>
</g>
<g id="clust4" class="cluster">
<title>cluster_AppModule_imports</title>
<polygon fill="none" stroke="black" points="16,-40.8 16,-92.8 301,-92.8 301,-40.8 16,-40.8"/>
</g>
<g id="clust6" class="cluster">
<title>cluster_AppModule_bootstrap</title>
<polygon fill="none" stroke="black" points="237,-170.8 237,-222.8 361,-222.8 361,-170.8 237,-170.8"/>
</g>
<!-- AppComponent -->
<g id="node1" class="node">
<title>AppComponent</title>
<polygon fill="#ffffb3" stroke="black" points="422.94,-84.8 317.06,-84.8 317.06,-48.8 422.94,-48.8 422.94,-84.8"/>
<text text-anchor="middle" x="370" y="-62.6" font-family="Times,serif" font-size="14.00">AppComponent</text>
</g>
<!-- AppModule -->
<g id="node2" class="node">
<title>AppModule</title>
<polygon fill="#8dd3c7" stroke="black" points="270.66,-149.8 267.66,-153.8 246.66,-153.8 243.66,-149.8 187.34,-149.8 187.34,-113.8 270.66,-113.8 270.66,-149.8"/>
<text text-anchor="middle" x="229" y="-127.6" font-family="Times,serif" font-size="14.00">AppModule</text>
</g>
<!-- AppComponent&#45;&gt;AppModule -->
<g id="edge1" class="edge">
<title>AppComponent&#45;&gt;AppModule</title>
<path fill="none" stroke="black" d="M335.38,-84.91C335.38,-104.14 335.38,-131.8 335.38,-131.8 335.38,-131.8 280.74,-131.8 280.74,-131.8"/>
<polygon fill="black" stroke="black" points="280.74,-128.3 270.74,-131.8 280.74,-135.3 280.74,-128.3"/>
</g>
<!-- AppSharedModule  -->
<g id="node5" class="node">
<title>AppSharedModule </title>
<polygon fill="#fb8072" stroke="black" points="221.03,-214.8 94.97,-214.8 94.97,-178.8 221.03,-178.8 221.03,-214.8"/>
<text text-anchor="middle" x="158" y="-192.6" font-family="Times,serif" font-size="14.00">AppSharedModule </text>
</g>
<!-- AppModule&#45;&gt;AppSharedModule  -->
<g id="edge4" class="edge">
<title>AppModule&#45;&gt;AppSharedModule </title>
<path fill="none" stroke="black" stroke-dasharray="5,2" d="M204.09,-149.91C204.09,-149.91 204.09,-168.79 204.09,-168.79"/>
<polygon fill="black" stroke="black" points="200.59,-168.79 204.09,-178.79 207.59,-168.79 200.59,-168.79"/>
</g>
<!-- AppComponent  -->
<g id="node6" class="node">
<title>AppComponent </title>
<polygon fill="#80b1d3" stroke="black" points="353.44,-214.8 244.56,-214.8 244.56,-178.8 353.44,-178.8 353.44,-214.8"/>
<text text-anchor="middle" x="299" y="-192.6" font-family="Times,serif" font-size="14.00">AppComponent </text>
</g>
<!-- AppModule&#45;&gt;AppComponent  -->
<g id="edge5" class="edge">
<title>AppModule&#45;&gt;AppComponent </title>
<path fill="none" stroke="black" stroke-dasharray="1,5" d="M257.68,-149.91C257.68,-149.91 257.68,-168.79 257.68,-168.79"/>
<polygon fill="black" stroke="black" points="254.18,-168.79 257.68,-178.79 261.18,-168.79 254.18,-168.79"/>
</g>
<!-- AppRoutingModule -->
<g id="node3" class="node">
<title>AppRoutingModule</title>
<polygon fill="#8dd3c7" stroke="black" points="293.27,-84.8 290.27,-88.8 269.27,-88.8 266.27,-84.8 164.73,-84.8 164.73,-48.8 293.27,-48.8 293.27,-84.8"/>
<text text-anchor="middle" x="229" y="-62.6" font-family="Times,serif" font-size="14.00">AppRoutingModule</text>
</g>
<!-- AppRoutingModule&#45;&gt;AppModule -->
<g id="edge2" class="edge">
<title>AppRoutingModule&#45;&gt;AppModule</title>
<path fill="none" stroke="black" d="M229,-84.91C229,-84.91 229,-103.79 229,-103.79"/>
<polygon fill="black" stroke="black" points="225.5,-103.79 229,-113.79 232.5,-103.79 225.5,-103.79"/>
</g>
<!-- AppSharedModule -->
<g id="node4" class="node">
<title>AppSharedModule</title>
<polygon fill="#8dd3c7" stroke="black" points="146.03,-84.8 143.03,-88.8 122.03,-88.8 119.03,-84.8 23.97,-84.8 23.97,-48.8 146.03,-48.8 146.03,-84.8"/>
<text text-anchor="middle" x="85" y="-62.6" font-family="Times,serif" font-size="14.00">AppSharedModule</text>
</g>
<!-- AppSharedModule&#45;&gt;AppModule -->
<g id="edge3" class="edge">
<title>AppSharedModule&#45;&gt;AppModule</title>
<path fill="none" stroke="black" d="M120.62,-84.91C120.62,-104.14 120.62,-131.8 120.62,-131.8 120.62,-131.8 177.1,-131.8 177.1,-131.8"/>
<polygon fill="black" stroke="black" points="177.1,-135.3 187.1,-131.8 177.1,-128.3 177.1,-135.3"/>
</g>
</g>
</svg>
