<?xml version="1.0" encoding="UTF-8" standalone="no"?>
<!DOCTYPE svg PUBLIC "-//W3C//DTD SVG 1.1//EN"
 "http://www.w3.org/Graphics/SVG/1.1/DTD/svg11.dtd">
<!-- Generated by graphviz version 2.47.3 (20210619.1520)
 -->
<!-- Title: dependencies Pages: 1 -->
<svg width="475pt" height="174pt"
 viewBox="0.00 0.00 475.00 173.80" xmlns="http://www.w3.org/2000/svg" xmlns:xlink="http://www.w3.org/1999/xlink">
<g id="graph0" class="graph" transform="scale(1 1) rotate(0) translate(4 169.8)">
<title>dependencies</title>
<polygon fill="white" stroke="transparent" points="-4,4 -4,-169.8 471,-169.8 471,4 -4,4"/>
<text text-anchor="middle" x="233.5" y="-8.2" font-family="sans-serif" font-size="14.00">dependencies</text>
<g id="clust1" class="cluster">
<title>cluster_HomeModule</title>
<polygon fill="none" stroke="black" stroke-dasharray="1,5" points="8,-32.8 8,-157.8 459,-157.8 459,-32.8 8,-32.8"/>
</g>
<g id="clust2" class="cluster">
<title>cluster_HomeModule_declarations</title>
<polygon fill="none" stroke="black" points="319,-40.8 319,-92.8 451,-92.8 451,-40.8 319,-40.8"/>
</g>
<g id="clust4" class="cluster">
<title>cluster_HomeModule_imports</title>
<polygon fill="none" stroke="black" points="16,-40.8 16,-92.8 311,-92.8 311,-40.8 16,-40.8"/>
</g>
<!-- HomeComponent -->
<g id="node1" class="node">
<title>HomeComponent</title>
<polygon fill="#ffffb3" stroke="black" points="442.55,-84.8 327.45,-84.8 327.45,-48.8 442.55,-48.8 442.55,-84.8"/>
<text text-anchor="middle" x="385" y="-62.6" font-family="Times,serif" font-size="14.00">HomeComponent</text>
</g>
<!-- HomeModule -->
<g id="node2" class="node">
<title>HomeModule</title>
<polygon fill="#8dd3c7" stroke="black" points="288.76,-149.8 285.76,-153.8 264.76,-153.8 261.76,-149.8 195.24,-149.8 195.24,-113.8 288.76,-113.8 288.76,-149.8"/>
<text text-anchor="middle" x="242" y="-127.6" font-family="Times,serif" font-size="14.00">HomeModule</text>
</g>
<!-- HomeComponent&#45;&gt;HomeModule -->
<g id="edge1" class="edge">
<title>HomeComponent&#45;&gt;HomeModule</title>
<path fill="none" stroke="black" d="M385,-84.91C385,-104.14 385,-131.8 385,-131.8 385,-131.8 298.82,-131.8 298.82,-131.8"/>
<polygon fill="black" stroke="black" points="298.82,-128.3 288.82,-131.8 298.82,-135.3 298.82,-128.3"/>
</g>
<!-- AppSharedModule -->
<g id="node3" class="node">
<title>AppSharedModule</title>
<polygon fill="#8dd3c7" stroke="black" points="303.03,-84.8 300.03,-88.8 279.03,-88.8 276.03,-84.8 180.97,-84.8 180.97,-48.8 303.03,-48.8 303.03,-84.8"/>
<text text-anchor="middle" x="242" y="-62.6" font-family="Times,serif" font-size="14.00">AppSharedModule</text>
</g>
<!-- AppSharedModule&#45;&gt;HomeModule -->
<g id="edge2" class="edge">
<title>AppSharedModule&#45;&gt;HomeModule</title>
<path fill="none" stroke="black" d="M242,-84.91C242,-84.91 242,-103.79 242,-103.79"/>
<polygon fill="black" stroke="black" points="238.5,-103.79 242,-113.79 245.5,-103.79 238.5,-103.79"/>
</g>
<!-- HomeRoutingModule -->
<g id="node4" class="node">
<title>HomeRoutingModule</title>
<polygon fill="#8dd3c7" stroke="black" points="162.38,-84.8 159.38,-88.8 138.38,-88.8 135.38,-84.8 23.62,-84.8 23.62,-48.8 162.38,-48.8 162.38,-84.8"/>
<text text-anchor="middle" x="93" y="-62.6" font-family="Times,serif" font-size="14.00">HomeRoutingModule</text>
</g>
<!-- HomeRoutingModule&#45;&gt;HomeModule -->
<g id="edge3" class="edge">
<title>HomeRoutingModule&#45;&gt;HomeModule</title>
<path fill="none" stroke="black" d="M93,-84.91C93,-104.14 93,-131.8 93,-131.8 93,-131.8 184.86,-131.8 184.86,-131.8"/>
<polygon fill="black" stroke="black" points="184.86,-135.3 194.86,-131.8 184.86,-128.3 184.86,-135.3"/>
</g>
</g>
</svg>
