<?xml version="1.0" encoding="UTF-8" standalone="no"?>
<!DOCTYPE svg PUBLIC "-//W3C//DTD SVG 1.1//EN"
 "http://www.w3.org/Graphics/SVG/1.1/DTD/svg11.dtd">
<!-- Generated by graphviz version 2.47.3 (20210619.1520)
 -->
<!-- Title: dependencies Pages: 1 -->
<svg width="2007pt" height="321pt"
 viewBox="0.00 0.00 2007.00 320.80" xmlns="http://www.w3.org/2000/svg" xmlns:xlink="http://www.w3.org/1999/xlink">
<g id="graph0" class="graph" transform="scale(1 1) rotate(0) translate(4 316.8)">
<title>dependencies</title>
<polygon fill="white" stroke="transparent" points="-4,4 -4,-316.8 2003,-316.8 2003,4 -4,4"/>
<text text-anchor="middle" x="999.5" y="-8.2" font-family="sans-serif" font-size="14.00">dependencies</text>
<g id="clust1" class="cluster">
<title>cluster_AppModule</title>
<polygon fill="none" stroke="black" stroke-dasharray="1,5" points="8,-32.8 8,-236.8 439,-236.8 439,-32.8 8,-32.8"/>
</g>
<g id="clust2" class="cluster">
<title>cluster_AppModule_declarations</title>
<polygon fill="none" stroke="black" points="16,-40.8 16,-92.8 138,-92.8 138,-40.8 16,-40.8"/>
</g>
<g id="clust4" class="cluster">
<title>cluster_AppModule_imports</title>
<polygon fill="none" stroke="black" points="146,-40.8 146,-92.8 431,-92.8 431,-40.8 146,-40.8"/>
</g>
<g id="clust5" class="cluster">
<title>cluster_AppModule_exports</title>
<polygon fill="none" stroke="black" points="82,-176.8 82,-228.8 224,-228.8 224,-176.8 82,-176.8"/>
</g>
<g id="clust6" class="cluster">
<title>cluster_AppModule_bootstrap</title>
<polygon fill="none" stroke="black" points="232,-176.8 232,-228.8 356,-228.8 356,-176.8 232,-176.8"/>
</g>
<g id="clust14" class="cluster">
<title>cluster_AppSharedModule</title>
<polygon fill="none" stroke="black" stroke-dasharray="1,5" points="447,-100.8 447,-168.8 719,-168.8 719,-100.8 447,-100.8"/>
</g>
<g id="clust16" class="cluster">
<title>cluster_AppSharedModule_imports</title>
<polygon fill="none" stroke="black" points="589,-108.8 589,-160.8 711,-160.8 711,-108.8 589,-108.8"/>
</g>
<g id="clust17" class="cluster">
<title>cluster_AppSharedModule_exports</title>
<polygon fill="none" stroke="black" points="455,-108.8 455,-160.8 581,-160.8 581,-108.8 455,-108.8"/>
</g>
<g id="clust20" class="cluster">
<title>cluster_HomeModule</title>
<polygon fill="none" stroke="black" stroke-dasharray="1,5" points="727,-32.8 727,-160.8 1037,-160.8 1037,-32.8 727,-32.8"/>
</g>
<g id="clust21" class="cluster">
<title>cluster_HomeModule_declarations</title>
<polygon fill="none" stroke="black" points="897,-40.8 897,-92.8 1029,-92.8 1029,-40.8 897,-40.8"/>
</g>
<g id="clust23" class="cluster">
<title>cluster_HomeModule_imports</title>
<polygon fill="none" stroke="black" points="735,-40.8 735,-92.8 889,-92.8 889,-40.8 735,-40.8"/>
</g>
<g id="clust39" class="cluster">
<title>cluster_SharedComponentModule</title>
<polygon fill="none" stroke="black" stroke-dasharray="1,5" points="1045,-100.8 1045,-304.8 1991,-304.8 1991,-100.8 1045,-100.8"/>
</g>
<g id="clust40" class="cluster">
<title>cluster_SharedComponentModule_declarations</title>
<polygon fill="none" stroke="black" points="1058,-108.8 1058,-160.8 1966,-160.8 1966,-108.8 1058,-108.8"/>
</g>
<g id="clust48" class="cluster">
<title>cluster_SharedComponentModule_exports</title>
<polygon fill="none" stroke="black" points="1053,-244.8 1053,-296.8 1983,-296.8 1983,-244.8 1053,-244.8"/>
</g>
<!-- AppComponent -->
<g id="node1" class="node">
<title>AppComponent</title>
<polygon fill="#ffffb3" stroke="black" points="129.94,-84.8 24.06,-84.8 24.06,-48.8 129.94,-48.8 129.94,-84.8"/>
<text text-anchor="middle" x="77" y="-62.6" font-family="Times,serif" font-size="14.00">AppComponent</text>
</g>
<!-- AppModule -->
<g id="node2" class="node">
<title>AppModule</title>
<polygon fill="#8dd3c7" stroke="black" points="259.66,-152.8 256.66,-156.8 235.66,-156.8 232.66,-152.8 176.34,-152.8 176.34,-116.8 259.66,-116.8 259.66,-152.8"/>
<text text-anchor="middle" x="218" y="-130.6" font-family="Times,serif" font-size="14.00">AppModule</text>
</g>
<!-- AppComponent&#45;&gt;AppModule -->
<g id="edge1" class="edge">
<title>AppComponent&#45;&gt;AppModule</title>
<path fill="none" stroke="black" d="M109.85,-85.02C109.85,-105.17 109.85,-134.8 109.85,-134.8 109.85,-134.8 166.19,-134.8 166.19,-134.8"/>
<polygon fill="black" stroke="black" points="166.19,-138.3 176.19,-134.8 166.19,-131.3 166.19,-138.3"/>
</g>
<!-- AppSharedModule  -->
<g id="node5" class="node">
<title>AppSharedModule </title>
<polygon fill="#fb8072" stroke="black" points="216.03,-220.8 89.97,-220.8 89.97,-184.8 216.03,-184.8 216.03,-220.8"/>
<text text-anchor="middle" x="153" y="-198.6" font-family="Times,serif" font-size="14.00">AppSharedModule </text>
</g>
<!-- AppModule&#45;&gt;AppSharedModule  -->
<g id="edge4" class="edge">
<title>AppModule&#45;&gt;AppSharedModule </title>
<path fill="none" stroke="black" stroke-dasharray="5,2" d="M196.09,-153.02C196.09,-153.02 196.09,-174.53 196.09,-174.53"/>
<polygon fill="black" stroke="black" points="192.59,-174.53 196.09,-184.53 199.59,-174.53 192.59,-174.53"/>
</g>
<!-- AppComponent  -->
<g id="node6" class="node">
<title>AppComponent </title>
<polygon fill="#80b1d3" stroke="black" points="348.44,-220.8 239.56,-220.8 239.56,-184.8 348.44,-184.8 348.44,-220.8"/>
<text text-anchor="middle" x="294" y="-198.6" font-family="Times,serif" font-size="14.00">AppComponent </text>
</g>
<!-- AppModule&#45;&gt;AppComponent  -->
<g id="edge5" class="edge">
<title>AppModule&#45;&gt;AppComponent </title>
<path fill="none" stroke="black" stroke-dasharray="1,5" d="M249.68,-153.02C249.68,-153.02 249.68,-174.53 249.68,-174.53"/>
<polygon fill="black" stroke="black" points="246.18,-174.53 249.68,-184.53 253.18,-174.53 246.18,-174.53"/>
</g>
<!-- AppRoutingModule -->
<g id="node3" class="node">
<title>AppRoutingModule</title>
<polygon fill="#8dd3c7" stroke="black" points="282.27,-84.8 279.27,-88.8 258.27,-88.8 255.27,-84.8 153.73,-84.8 153.73,-48.8 282.27,-48.8 282.27,-84.8"/>
<text text-anchor="middle" x="218" y="-62.6" font-family="Times,serif" font-size="14.00">AppRoutingModule</text>
</g>
<!-- AppRoutingModule&#45;&gt;AppModule -->
<g id="edge2" class="edge">
<title>AppRoutingModule&#45;&gt;AppModule</title>
<path fill="none" stroke="black" d="M218,-85.02C218,-85.02 218,-106.53 218,-106.53"/>
<polygon fill="black" stroke="black" points="214.5,-106.53 218,-116.53 221.5,-106.53 214.5,-106.53"/>
</g>
<!-- AppSharedModule -->
<g id="node4" class="node">
<title>AppSharedModule</title>
<polygon fill="#8dd3c7" stroke="black" points="423.03,-84.8 420.03,-88.8 399.03,-88.8 396.03,-84.8 300.97,-84.8 300.97,-48.8 423.03,-48.8 423.03,-84.8"/>
<text text-anchor="middle" x="362" y="-62.6" font-family="Times,serif" font-size="14.00">AppSharedModule</text>
</g>
<!-- AppSharedModule&#45;&gt;AppModule -->
<g id="edge3" class="edge">
<title>AppSharedModule&#45;&gt;AppModule</title>
<path fill="none" stroke="black" d="M324.6,-85.09C324.6,-107.01 324.6,-140.8 324.6,-140.8 324.6,-140.8 269.83,-140.8 269.83,-140.8"/>
<polygon fill="black" stroke="black" points="269.83,-137.3 259.83,-140.8 269.83,-144.3 269.83,-137.3"/>
</g>
<!-- MaterialModule  -->
<g id="node8" class="node">
<title>MaterialModule </title>
<polygon fill="#fb8072" stroke="black" points="573.47,-152.8 462.53,-152.8 462.53,-116.8 573.47,-116.8 573.47,-152.8"/>
<text text-anchor="middle" x="518" y="-130.6" font-family="Times,serif" font-size="14.00">MaterialModule </text>
</g>
<!-- AppSharedModule&#45;&gt;MaterialModule  -->
<g id="edge7" class="edge">
<title>AppSharedModule&#45;&gt;MaterialModule </title>
<path fill="none" stroke="black" stroke-dasharray="5,2" d="M385.87,-85.07C385.87,-103.36 385.87,-128.8 385.87,-128.8 385.87,-128.8 452.73,-128.8 452.73,-128.8"/>
<polygon fill="black" stroke="black" points="452.73,-132.3 462.73,-128.8 452.73,-125.3 452.73,-132.3"/>
</g>
<!-- HomeModule -->
<g id="node10" class="node">
<title>HomeModule</title>
<polygon fill="#8dd3c7" stroke="black" points="858.76,-152.8 855.76,-156.8 834.76,-156.8 831.76,-152.8 765.24,-152.8 765.24,-116.8 858.76,-116.8 858.76,-152.8"/>
<text text-anchor="middle" x="812" y="-130.6" font-family="Times,serif" font-size="14.00">HomeModule</text>
</g>
<!-- AppSharedModule&#45;&gt;HomeModule -->
<g id="edge9" class="edge">
<title>AppSharedModule&#45;&gt;HomeModule</title>
<path fill="none" stroke="black" d="M423.24,-60.8C526.24,-60.8 723.02,-60.8 723.02,-60.8 723.02,-60.8 723.02,-134.8 723.02,-134.8 723.02,-134.8 755.17,-134.8 755.17,-134.8"/>
<polygon fill="black" stroke="black" points="755.17,-138.3 765.17,-134.8 755.17,-131.3 755.17,-138.3"/>
</g>
<!-- MaterialModule -->
<g id="node7" class="node">
<title>MaterialModule</title>
<polygon fill="#8dd3c7" stroke="black" points="703.47,-152.8 700.47,-156.8 679.47,-156.8 676.47,-152.8 596.53,-152.8 596.53,-116.8 703.47,-116.8 703.47,-152.8"/>
<text text-anchor="middle" x="650" y="-130.6" font-family="Times,serif" font-size="14.00">MaterialModule</text>
</g>
<!-- MaterialModule&#45;&gt;AppSharedModule -->
<g id="edge6" class="edge">
<title>MaterialModule&#45;&gt;AppSharedModule</title>
<path fill="none" stroke="black" d="M650,-116.53C650,-98.24 650,-72.8 650,-72.8 650,-72.8 433.08,-72.8 433.08,-72.8"/>
<polygon fill="black" stroke="black" points="433.08,-69.3 423.08,-72.8 433.08,-76.3 433.08,-69.3"/>
</g>
<!-- SharedComponentModule -->
<g id="node18" class="node">
<title>SharedComponentModule</title>
<polygon fill="#8dd3c7" stroke="black" points="1502.75,-220.8 1499.75,-224.8 1478.75,-224.8 1475.75,-220.8 1339.25,-220.8 1339.25,-184.8 1502.75,-184.8 1502.75,-220.8"/>
<text text-anchor="middle" x="1421" y="-198.6" font-family="Times,serif" font-size="14.00">SharedComponentModule</text>
</g>
<!-- MaterialModule&#45;&gt;SharedComponentModule -->
<g id="edge17" class="edge">
<title>MaterialModule&#45;&gt;SharedComponentModule</title>
<path fill="none" stroke="black" d="M650,-153.02C650,-173.17 650,-202.8 650,-202.8 650,-202.8 1329.22,-202.8 1329.22,-202.8"/>
<polygon fill="black" stroke="black" points="1329.22,-206.3 1339.22,-202.8 1329.22,-199.3 1329.22,-206.3"/>
</g>
<!-- HomeComponent -->
<g id="node9" class="node">
<title>HomeComponent</title>
<polygon fill="#ffffb3" stroke="black" points="1020.55,-84.8 905.45,-84.8 905.45,-48.8 1020.55,-48.8 1020.55,-84.8"/>
<text text-anchor="middle" x="963" y="-62.6" font-family="Times,serif" font-size="14.00">HomeComponent</text>
</g>
<!-- HomeComponent&#45;&gt;HomeModule -->
<g id="edge8" class="edge">
<title>HomeComponent&#45;&gt;HomeModule</title>
<path fill="none" stroke="black" d="M963,-85.02C963,-105.17 963,-134.8 963,-134.8 963,-134.8 868.95,-134.8 868.95,-134.8"/>
<polygon fill="black" stroke="black" points="868.95,-131.3 858.95,-134.8 868.95,-138.3 868.95,-131.3"/>
</g>
<!-- HomeRoutingModule -->
<g id="node11" class="node">
<title>HomeRoutingModule</title>
<polygon fill="#8dd3c7" stroke="black" points="881.38,-84.8 878.38,-88.8 857.38,-88.8 854.38,-84.8 742.62,-84.8 742.62,-48.8 881.38,-48.8 881.38,-84.8"/>
<text text-anchor="middle" x="812" y="-62.6" font-family="Times,serif" font-size="14.00">HomeRoutingModule</text>
</g>
<!-- HomeRoutingModule&#45;&gt;HomeModule -->
<g id="edge10" class="edge">
<title>HomeRoutingModule&#45;&gt;HomeModule</title>
<path fill="none" stroke="black" d="M812,-85.02C812,-85.02 812,-106.53 812,-106.53"/>
<polygon fill="black" stroke="black" points="808.5,-106.53 812,-116.53 815.5,-106.53 808.5,-106.53"/>
</g>
<!-- FooterComponent -->
<g id="node12" class="node">
<title>FooterComponent</title>
<polygon fill="#ffffb3" stroke="black" points="1957.88,-152.8 1840.12,-152.8 1840.12,-116.8 1957.88,-116.8 1957.88,-152.8"/>
<text text-anchor="middle" x="1899" y="-130.6" font-family="Times,serif" font-size="14.00">FooterComponent</text>
</g>
<!-- FooterComponent&#45;&gt;SharedComponentModule -->
<g id="edge11" class="edge">
<title>FooterComponent&#45;&gt;SharedComponentModule</title>
<path fill="none" stroke="black" d="M1846.68,-152.91C1846.68,-172.14 1846.68,-199.8 1846.68,-199.8 1846.68,-199.8 1512.82,-199.8 1512.82,-199.8"/>
<polygon fill="black" stroke="black" points="1512.82,-196.3 1502.82,-199.8 1512.82,-203.3 1512.82,-196.3"/>
</g>
<!-- FormFieldsComponent -->
<g id="node13" class="node">
<title>FormFieldsComponent</title>
<polygon fill="#ffffb3" stroke="black" points="1821.89,-152.8 1676.11,-152.8 1676.11,-116.8 1821.89,-116.8 1821.89,-152.8"/>
<text text-anchor="middle" x="1749" y="-130.6" font-family="Times,serif" font-size="14.00">FormFieldsComponent</text>
</g>
<!-- FormFieldsComponent&#45;&gt;SharedComponentModule -->
<g id="edge12" class="edge">
<title>FormFieldsComponent&#45;&gt;SharedComponentModule</title>
<path fill="none" stroke="black" d="M1681.18,-152.83C1681.18,-169.86 1681.18,-192.8 1681.18,-192.8 1681.18,-192.8 1512.97,-192.8 1512.97,-192.8"/>
<polygon fill="black" stroke="black" points="1512.97,-189.3 1502.97,-192.8 1512.97,-196.3 1512.97,-189.3"/>
</g>
<!-- FormRendererComponent -->
<g id="node14" class="node">
<title>FormRendererComponent</title>
<polygon fill="#ffffb3" stroke="black" points="1658.47,-152.8 1495.53,-152.8 1495.53,-116.8 1658.47,-116.8 1658.47,-152.8"/>
<text text-anchor="middle" x="1577" y="-130.6" font-family="Times,serif" font-size="14.00">FormRendererComponent</text>
</g>
<!-- FormRendererComponent&#45;&gt;SharedComponentModule -->
<g id="edge13" class="edge">
<title>FormRendererComponent&#45;&gt;SharedComponentModule</title>
<path fill="none" stroke="black" d="M1499.2,-153.02C1499.2,-153.02 1499.2,-174.53 1499.2,-174.53"/>
<polygon fill="black" stroke="black" points="1495.7,-174.53 1499.2,-184.53 1502.7,-174.53 1495.7,-174.53"/>
</g>
<!-- HeaderComponent -->
<g id="node15" class="node">
<title>HeaderComponent</title>
<polygon fill="#ffffb3" stroke="black" points="1477.74,-152.8 1356.26,-152.8 1356.26,-116.8 1477.74,-116.8 1477.74,-152.8"/>
<text text-anchor="middle" x="1417" y="-130.6" font-family="Times,serif" font-size="14.00">HeaderComponent</text>
</g>
<!-- HeaderComponent&#45;&gt;SharedComponentModule -->
<g id="edge14" class="edge">
<title>HeaderComponent&#45;&gt;SharedComponentModule</title>
<path fill="none" stroke="black" d="M1417,-153.02C1417,-153.02 1417,-174.53 1417,-174.53"/>
<polygon fill="black" stroke="black" points="1413.5,-174.53 1417,-184.53 1420.5,-174.53 1413.5,-174.53"/>
</g>
<!-- SidebarComponent -->
<g id="node16" class="node">
<title>SidebarComponent</title>
<polygon fill="#ffffb3" stroke="black" points="1338.1,-152.8 1213.9,-152.8 1213.9,-116.8 1338.1,-116.8 1338.1,-152.8"/>
<text text-anchor="middle" x="1276" y="-130.6" font-family="Times,serif" font-size="14.00">SidebarComponent</text>
</g>
<!-- SidebarComponent&#45;&gt;SharedComponentModule -->
<g id="edge15" class="edge">
<title>SidebarComponent&#45;&gt;SharedComponentModule</title>
<path fill="none" stroke="black" d="M1338.26,-134.8C1343.95,-134.8 1347.63,-134.8 1347.63,-134.8 1347.63,-134.8 1347.63,-174.58 1347.63,-174.58"/>
<polygon fill="black" stroke="black" points="1344.13,-174.58 1347.63,-184.58 1351.13,-174.58 1344.13,-174.58"/>
</g>
<!-- TextEditComponent -->
<g id="node17" class="node">
<title>TextEditComponent</title>
<polygon fill="#ffffb3" stroke="black" points="1196.32,-152.8 1065.68,-152.8 1065.68,-116.8 1196.32,-116.8 1196.32,-152.8"/>
<text text-anchor="middle" x="1131" y="-130.6" font-family="Times,serif" font-size="14.00">TextEditComponent</text>
</g>
<!-- TextEditComponent&#45;&gt;SharedComponentModule -->
<g id="edge16" class="edge">
<title>TextEditComponent&#45;&gt;SharedComponentModule</title>
<path fill="none" stroke="black" d="M1151.89,-152.82C1151.89,-170.17 1151.89,-193.8 1151.89,-193.8 1151.89,-193.8 1329.16,-193.8 1329.16,-193.8"/>
<polygon fill="black" stroke="black" points="1329.16,-197.3 1339.16,-193.8 1329.16,-190.3 1329.16,-197.3"/>
</g>
<!-- FooterComponent  -->
<g id="node19" class="node">
<title>FooterComponent </title>
<polygon fill="#fb8072" stroke="black" points="1974.88,-288.8 1853.12,-288.8 1853.12,-252.8 1974.88,-252.8 1974.88,-288.8"/>
<text text-anchor="middle" x="1914" y="-266.6" font-family="Times,serif" font-size="14.00">FooterComponent </text>
</g>
<!-- SharedComponentModule&#45;&gt;FooterComponent  -->
<g id="edge18" class="edge">
<title>SharedComponentModule&#45;&gt;FooterComponent </title>
<path fill="none" stroke="black" stroke-dasharray="5,2" d="M1502.94,-206.8C1641.13,-206.8 1905.62,-206.8 1905.62,-206.8 1905.62,-206.8 1905.62,-242.63 1905.62,-242.63"/>
<polygon fill="black" stroke="black" points="1902.13,-242.63 1905.62,-252.63 1909.13,-242.63 1902.13,-242.63"/>
</g>
<!-- FormFieldsComponent  -->
<g id="node20" class="node">
<title>FormFieldsComponent </title>
<polygon fill="#fb8072" stroke="black" points="1835.89,-288.8 1686.11,-288.8 1686.11,-252.8 1835.89,-252.8 1835.89,-288.8"/>
<text text-anchor="middle" x="1761" y="-266.6" font-family="Times,serif" font-size="14.00">FormFieldsComponent </text>
</g>
<!-- SharedComponentModule&#45;&gt;FormFieldsComponent  -->
<g id="edge19" class="edge">
<title>SharedComponentModule&#45;&gt;FormFieldsComponent </title>
<path fill="none" stroke="black" stroke-dasharray="5,2" d="M1502.92,-213.8C1601.55,-213.8 1754.12,-213.8 1754.12,-213.8 1754.12,-213.8 1754.12,-242.76 1754.12,-242.76"/>
<polygon fill="black" stroke="black" points="1750.63,-242.76 1754.12,-252.76 1757.63,-242.76 1750.63,-242.76"/>
</g>
<!-- FormRendererComponent  -->
<g id="node21" class="node">
<title>FormRendererComponent </title>
<polygon fill="#fb8072" stroke="black" points="1668.47,-288.8 1501.53,-288.8 1501.53,-252.8 1668.47,-252.8 1668.47,-288.8"/>
<text text-anchor="middle" x="1585" y="-266.6" font-family="Times,serif" font-size="14.00">FormRendererComponent </text>
</g>
<!-- SharedComponentModule&#45;&gt;FormRendererComponent  -->
<g id="edge20" class="edge">
<title>SharedComponentModule&#45;&gt;FormRendererComponent </title>
<path fill="none" stroke="black" stroke-dasharray="5,2" d="M1492.69,-221.02C1492.69,-241.17 1492.69,-270.8 1492.69,-270.8 1492.69,-270.8 1493.58,-270.8 1493.58,-270.8"/>
<polygon fill="black" stroke="black" points="1491.54,-274.3 1501.54,-270.8 1491.54,-267.3 1491.54,-274.3"/>
</g>
<!-- HeaderComponent  -->
<g id="node22" class="node">
<title>HeaderComponent </title>
<polygon fill="#fb8072" stroke="black" points="1483.74,-288.8 1358.26,-288.8 1358.26,-252.8 1483.74,-252.8 1483.74,-288.8"/>
<text text-anchor="middle" x="1421" y="-266.6" font-family="Times,serif" font-size="14.00">HeaderComponent </text>
</g>
<!-- SharedComponentModule&#45;&gt;HeaderComponent  -->
<g id="edge21" class="edge">
<title>SharedComponentModule&#45;&gt;HeaderComponent </title>
<path fill="none" stroke="black" stroke-dasharray="5,2" d="M1421,-221.02C1421,-221.02 1421,-242.53 1421,-242.53"/>
<polygon fill="black" stroke="black" points="1417.5,-242.53 1421,-252.53 1424.5,-242.53 1417.5,-242.53"/>
</g>
<!-- SidebarComponent  -->
<g id="node23" class="node">
<title>SidebarComponent </title>
<polygon fill="#fb8072" stroke="black" points="1340.6,-288.8 1213.4,-288.8 1213.4,-252.8 1340.6,-252.8 1340.6,-288.8"/>
<text text-anchor="middle" x="1277" y="-266.6" font-family="Times,serif" font-size="14.00">SidebarComponent </text>
</g>
<!-- SharedComponentModule&#45;&gt;SidebarComponent  -->
<g id="edge22" class="edge">
<title>SharedComponentModule&#45;&gt;SidebarComponent </title>
<path fill="none" stroke="black" stroke-dasharray="5,2" d="M1349.59,-221.02C1349.59,-241.17 1349.59,-270.8 1349.59,-270.8 1349.59,-270.8 1348.7,-270.8 1348.7,-270.8"/>
<polygon fill="black" stroke="black" points="1350.69,-267.3 1340.69,-270.8 1350.69,-274.3 1350.69,-267.3"/>
</g>
<!-- TextEditComponent  -->
<g id="node24" class="node">
<title>TextEditComponent </title>
<polygon fill="#fb8072" stroke="black" points="1194.82,-288.8 1061.18,-288.8 1061.18,-252.8 1194.82,-252.8 1194.82,-288.8"/>
<text text-anchor="middle" x="1128" y="-266.6" font-family="Times,serif" font-size="14.00">TextEditComponent </text>
</g>
<!-- SharedComponentModule&#45;&gt;TextEditComponent  -->
<g id="edge23" class="edge">
<title>SharedComponentModule&#45;&gt;TextEditComponent </title>
<path fill="none" stroke="black" stroke-dasharray="5,2" d="M1338.99,-211.8C1246.51,-211.8 1108.86,-211.8 1108.86,-211.8 1108.86,-211.8 1108.86,-242.78 1108.86,-242.78"/>
<polygon fill="black" stroke="black" points="1105.36,-242.78 1108.86,-252.78 1112.36,-242.78 1105.36,-242.78"/>
</g>
</g>
</svg>
